<svg width="550" height="100" viewBox="0 0 550 100" xmlns="http://www.w3.org/2000/svg"><g fill="none"><path d="M138.878 29.364c0-3.637 2.951-6.546 6.64-6.546h33.659c3.32 0 5.994 2.637 5.994 5.91 0 3.272-2.675 5.908-5.994 5.908h-27.02v12.637h23.239c3.32 0 5.994 2.636 5.994 5.909 0 3.273-2.674 5.909-5.994 5.909h-23.239v17c0 3.636-2.95 6.545-6.64 6.545-3.688 0-6.639-2.909-6.639-6.545V29.364zm51.18-.454c0-3.637 2.951-6.546 6.64-6.546 3.688 0 6.64 2.909 6.64 6.545v41.455h24.437c3.32 0 5.994 2.636 5.994 5.909 0 3.272-2.674 5.909-5.994 5.909h-31.17c-3.688 0-6.639-2.91-6.639-6.546V28.91h.092zm47.031 44.908l21.025-46.727c1.475-3.182 4.15-5.182 7.746-5.182h.738c3.596 0 6.178 1.91 7.654 5.182l21.025 46.727a5.83 5.83 0 01.646 2.637 6.252 6.252 0 01-6.271 6.272c-3.135 0-5.164-1.818-6.363-4.454l-4.057-9.364h-26.467l-4.242 9.727c-1.106 2.546-3.32 4.091-6.086 4.091a6.057 6.057 0 01-6.086-6.09c0-.91.277-1.91.738-2.819zm37.255-16.454l-8.3-19.546-8.299 19.546h16.599zm34.12-22.454h-12.726c-3.32 0-6.086-2.728-6.086-6 0-3.274 2.766-6 6.086-6h38.731c3.32 0 6.086 2.726 6.086 6 0 3.272-2.766 6-6.086 6h-12.726v41.272c0 3.636-2.95 6.545-6.64 6.545-3.688 0-6.639-2.909-6.639-6.545V34.909z" fill="#0E2A47"/><path d="M345.443 28.91c0-3.637 2.95-6.546 6.64-6.546 3.688 0 6.64 2.909 6.64 6.545v47.273c0 3.636-2.952 6.545-6.64 6.545-3.69 0-6.64-2.909-6.64-6.545V28.909zm21.025 23.817v-.182c0-16.909 12.91-30.727 31.354-30.727 9.037 0 15.123 2.364 20.103 6 1.383 1 2.582 2.91 2.582 5.182 0 3.545-2.95 6.364-6.547 6.364-1.845 0-3.043-.637-3.966-1.273-3.688-2.727-7.561-4.273-12.264-4.273-10.144 0-17.43 8.273-17.43 18.455v.182c0 10.181 7.101 18.636 17.43 18.636 5.625 0 9.314-1.727 13.094-4.636 1.015-.819 2.398-1.455 3.966-1.455 3.32 0 6.178 2.727 6.178 6 0 2-1.014 3.636-2.213 4.636-5.44 4.637-11.804 7.455-21.394 7.455-17.706.182-30.893-13.364-30.893-30.364zm57.636 0v-.182c0-16.909 13.463-30.727 32.091-30.727 18.535 0 31.907 13.637 31.907 30.546v.181c0 16.91-13.464 30.728-32.091 30.728-18.536 0-31.907-13.728-31.907-30.546zm50.165 0v-.182c0-10.181-7.561-18.636-18.258-18.636-10.698 0-18.075 8.273-18.075 18.455v.181c0 10.182 7.562 18.637 18.259 18.637s18.074-8.273 18.074-18.455zm21.487-23.637c0-3.635 2.95-6.545 6.64-6.545h1.383c3.227 0 5.072 1.546 6.916 3.819l25.544 33.09V28.819c0-3.545 2.95-6.454 6.547-6.454 3.597 0 6.548 2.909 6.548 6.454V76c0 3.636-2.951 6.545-6.64 6.545h-.461c-3.228 0-5.072-1.545-6.916-3.818L508.85 44.455v31.818c0 3.545-2.951 6.454-6.548 6.454-3.596 0-6.547-2.909-6.547-6.454V29.09z" fill="#69E781"/><path d="M47.676 54.91H59.94L70.822 37h-34.12l-11.25-18.364h56.62L92.955.727H9.406c-3.32 0-6.27 1.728-7.93 4.546-1.568 2.818-1.568 6.272.092 9l49.335 80.545a9.08 9.08 0 007.747 4.364 9.08 9.08 0 007.746-4.364l2.859-4.636-21.58-35.273z" fill="#0E2A47"/><path d="M91.94 18.636h21.21l2.674-4.363c1.66-2.728 1.752-6.182.092-9-1.568-2.818-4.61-4.546-7.93-4.546h-5.165L91.94 18.637zm-5.164 8.546L63.722 64.909l10.512 17.273 33.66-55z" fill="#69E781"/></g></svg>